<svg width="20" height="23" viewBox="0 0 20 23" fill="none" xmlns="http://www.w3.org/2000/svg">
<path d="M17.2659 3.75H15.801C15.7014 3.75 15.6077 3.78662 15.5491 3.84668L10.0002 9.58301L4.45142 3.84668C4.39283 3.78662 4.29908 3.75 4.19947 3.75H2.73462C2.60767 3.75 2.53345 3.8584 2.60767 3.93604L9.49439 11.0566C9.74439 11.3145 10.2561 11.3145 10.5042 11.0566L17.3909 3.93604C17.467 3.8584 17.3928 3.75 17.2659 3.75Z" fill="#6773EF"/>
<path d="M17.2659 11.75H15.801C15.7014 11.75 15.6077 11.7866 15.5491 11.8467L10.0002 17.583L4.45142 11.8467C4.39283 11.7866 4.29908 11.75 4.19947 11.75H2.73462C2.60767 11.75 2.53345 11.8584 2.60767 11.936L9.49439 19.0566C9.74439 19.3145 10.2561 19.3145 10.5042 19.0566L17.3909 11.936C17.467 11.8584 17.3928 11.75 17.2659 11.75Z" fill="#6773EF"/>
</svg>
