<svg width="25" height="25" viewBox="0 0 25 25" fill="none" xmlns="http://www.w3.org/2000/svg">
<path d="M14.0137 16.2451C13.977 16.2088 13.9274 16.1884 13.8757 16.1884C13.8241 16.1884 13.7745 16.2088 13.7378 16.2451L10.9009 19.082C9.5874 20.3955 7.37061 20.5347 5.92041 19.082C4.46777 17.6294 4.60693 15.415 5.92041 14.1016L8.75732 11.2646C8.83301 11.189 8.83301 11.0645 8.75732 10.9888L7.78564 10.0171C7.74894 9.98074 7.69936 9.96035 7.64771 9.96035C7.59605 9.96035 7.54647 9.98074 7.50977 10.0171L4.67285 12.854C2.60742 14.9194 2.60742 18.2617 4.67285 20.3247C6.73828 22.3877 10.0806 22.3901 12.1436 20.3247L14.9805 17.4878C15.0562 17.4121 15.0562 17.2876 14.9805 17.2119L14.0137 16.2451ZM20.3271 4.67285C18.2617 2.60742 14.9194 2.60742 12.8564 4.67285L10.0171 7.50977C9.98074 7.54647 9.96035 7.59605 9.96035 7.64771C9.96035 7.69936 9.98074 7.74894 10.0171 7.78564L10.9863 8.75488C11.062 8.83057 11.1865 8.83057 11.2622 8.75488L14.0991 5.91797C15.4126 4.60449 17.6294 4.46533 19.0796 5.91797C20.5322 7.3706 20.3931 9.58496 19.0796 10.8984L16.2427 13.7354C16.2063 13.7721 16.1859 13.8216 16.1859 13.8733C16.1859 13.925 16.2063 13.9745 16.2427 14.0112L17.2144 14.9829C17.29 15.0586 17.4146 15.0586 17.4902 14.9829L20.3271 12.146C22.3901 10.0806 22.3901 6.73828 20.3271 4.67285ZM14.895 9.08935C14.8583 9.05301 14.8087 9.03262 14.7571 9.03262C14.7054 9.03262 14.6558 9.05301 14.6191 9.08935L9.08935 14.6167C9.05301 14.6534 9.03262 14.703 9.03262 14.7546C9.03262 14.8063 9.05301 14.8559 9.08935 14.8926L10.0562 15.8594C10.1318 15.9351 10.2563 15.9351 10.332 15.8594L15.8594 10.332C15.9351 10.2563 15.9351 10.1318 15.8594 10.0562L14.895 9.08935Z" fill="#F7F7F7"/>
</svg>
